<svg xmlns="http://www.w3.org/2000/svg" viewBox="0 0 211.34 211.34"><rect x="19.01" y="30.7" width="173.32" height="120.89" style="fill:none; stroke:#000; stroke-linecap:round; stroke-linejoin:round; stroke-width:4px;"/><line x1="105.67" y1="151.59" x2="105.67" y2="183.05" style="fill:none; stroke:#000; stroke-linecap:round; stroke-linejoin:round; stroke-width:4px;"/><line x1="171.69" y1="183.06" x2="39.65" y2="183.06" style="fill:none; stroke:#000; stroke-linecap:round; stroke-linejoin:round; stroke-width:4px;"/><path d="M165.6,91.15c0,16.04-13,29.04-29.04,29.04s-29.04-13-29.04-29.04,13-29.04,29.04-29.04" style="fill:none; stroke:#000; stroke-linecap:round; stroke-linejoin:round; stroke-width:4px;"/><path d="M177.77,91.15c0-22.77-18.46-41.22-41.22-41.22v41.22h41.22Z" style="fill:none; stroke:#000; stroke-linecap:round; stroke-linejoin:round; stroke-width:4px;"/><line x1="74.07" y1="138.85" x2="74.07" y2="45" style="fill:none; stroke:#000; stroke-linecap:round; stroke-linejoin:round; stroke-width:4px;"/><line x1="35.74" y1="58.34" x2="74.07" y2="58.34" style="fill:none; stroke:#000; stroke-linecap:round; stroke-linejoin:round; stroke-width:4px;"/><line x1="35.74" y1="79.8" x2="74.07" y2="79.8" style="fill:none; stroke:#000; stroke-linecap:round; stroke-linejoin:round; stroke-width:4px;"/><line x1="35.74" y1="101.25" x2="74.07" y2="101.25" style="fill:none; stroke:#000; stroke-linecap:round; stroke-linejoin:round; stroke-width:4px;"/><line x1="35.74" y1="125.5" x2="74.07" y2="125.5" style="fill:none; stroke:#000; stroke-linecap:round; stroke-linejoin:round; stroke-width:4px;"/><line x1="107.51" y1="138.85" x2="165.6" y2="138.85" style="fill:none; stroke:#000; stroke-linecap:round; stroke-linejoin:round; stroke-width:4px;"/></svg>