<svg xmlns="http://www.w3.org/2000/svg" viewBox="0 0 211.34 211.34"><polygon points="178.08 36.41 164.74 36.41 159.79 187.9 183.03 187.9 178.08 36.41" style="fill:none; stroke:currentColor; stroke-linecap:round; stroke-linejoin:round;"/><rect x="164.74" y="21.22" width="13.34" height="15.19" style="fill:none; stroke:currentColor; stroke-linecap:round; stroke-linejoin:round;"/><line x1="157.38" y1="36.41" x2="185.44" y2="36.41" style="fill:none; stroke:currentColor; stroke-linecap:round; stroke-linejoin:round;"/><line x1="16.3" y1="187.9" x2="200.06" y2="187.9" style="fill:none; stroke:currentColor; stroke-linecap:round; stroke-linejoin:round;"/><path d="M52.11,164.13h0c3.98,0,7.21,3.23,7.21,7.21v16.17h-14.43v-16.17c0-3.98,3.23-7.21,7.21-7.21Z" style="fill:none; stroke:currentColor; stroke-linecap:round; stroke-linejoin:round;"/><polygon points="83.48 126.34 20.74 137.23 20.74 187.52 83.48 187.52 83.48 126.34" style="fill:none; stroke:currentColor; stroke-linecap:round; stroke-linejoin:round;"/><polyline points="83.48 128.83 83.48 114.57 20.74 125.46 20.74 139.52" style="fill:none; stroke:currentColor; stroke-linecap:round; stroke-linejoin:round;"/><line x1="29.49" y1="121.34" x2="29.49" y2="110.05" style="fill:none; stroke:currentColor; stroke-linecap:round; stroke-linejoin:round;"/><line x1="40.21" y1="121.34" x2="40.21" y2="110.05" style="fill:none; stroke:currentColor; stroke-linecap:round; stroke-linejoin:round;"/><path d="M114.85,164.13h0c3.98,0,7.21,3.23,7.21,7.21v16.17h-14.43v-16.17c0-3.98,3.23-7.21,7.21-7.21Z" style="fill:none; stroke:currentColor; stroke-linecap:round; stroke-linejoin:round;"/><polygon points="146.22 126.34 83.48 137.23 83.48 187.52 146.22 187.52 146.22 126.34" style="fill:none; stroke:currentColor; stroke-linecap:round; stroke-linejoin:round;"/><polyline points="146.22 128.83 146.22 114.57 83.48 125.46 83.48 139.52" style="fill:none; stroke:currentColor; stroke-linecap:round; stroke-linejoin:round;"/><line x1="92.22" y1="121.34" x2="92.22" y2="110.05" style="fill:none; stroke:currentColor; stroke-linecap:round; stroke-linejoin:round;"/><line x1="102.95" y1="121.34" x2="102.95" y2="110.05" style="fill:none; stroke:currentColor; stroke-linecap:round; stroke-linejoin:round;"/></svg>